<svg width="844" height="815" viewBox="0 0 844 815" fill="none" xmlns="http://www.w3.org/2000/svg">
<path d="M229.177 301.71L236.889 316.076L250.992 323.934L236.889 331.793L229.177 346.149L221.465 331.793L207.362 323.934L221.465 316.076L229.177 301.71Z" fill="#095CA2"/>
<path opacity="0.61" d="M229.907 307.756L235.519 318.212L245.791 323.934L235.519 329.657L229.907 340.112L224.296 329.657L214.023 323.934L224.296 318.212L229.907 307.756Z" fill="url(#paint0_linear_1_2)"/>
<path d="M203.491 350.137L206.951 356.585L213.273 360.102L206.951 363.63L203.491 370.078L200.03 363.63L193.698 360.102L200.03 356.585L203.491 350.137Z" fill="#095CA2"/>
<path d="M257.554 350.137L261.905 358.25L269.877 362.68L261.905 367.118L257.554 375.232L253.193 367.118L245.231 362.68L253.193 358.25L257.554 350.137Z" fill="#095CA2"/>
<path d="M609.102 221.31C619.338 221.31 627.636 213.18 627.636 203.152C627.636 193.124 619.338 184.995 609.102 184.995C598.865 184.995 590.567 193.124 590.567 203.152C590.567 213.18 598.865 221.31 609.102 221.31Z" fill="#095CA2"/>
<path d="M629.327 248.6C634.895 248.6 639.409 244.178 639.409 238.723C639.409 233.267 634.895 228.845 629.327 228.845C623.758 228.845 619.244 233.267 619.244 238.723C619.244 244.178 623.758 248.6 629.327 248.6Z" fill="#095CA2"/>
<path d="M593.898 254.538C599.08 254.538 603.28 250.423 603.28 245.347C603.28 240.27 599.08 236.155 593.898 236.155C588.716 236.155 584.515 240.27 584.515 245.347C584.515 250.423 588.716 254.538 593.898 254.538Z" fill="#095CA2"/>
<path d="M343.225 393.478V392.586C342.375 393.027 341.535 393.468 340.695 393.909C341.535 393.772 342.375 393.605 343.225 393.478Z" fill="#095CA2"/>
<path d="M91 601.62L121.318 491.93H163.308L193.455 601.62H169.41L162.788 579.455H121.137L114.866 601.62H91ZM124.978 561.63H159.307L145.894 509.921H138.572L124.978 561.63Z" fill="#095CA2"/>
<path d="M283.718 603.384C272.675 603.384 263.853 602.149 257.231 599.69C250.61 597.23 245.819 593.536 242.858 588.607C239.897 583.688 238.417 577.417 238.417 569.822C238.417 563.61 239.317 558.505 241.117 554.487C242.918 550.469 245.588 547.206 249.129 544.688C252.67 542.17 257.061 540.063 262.283 538.348C259.962 535.673 258.212 533.233 257.051 531.038C255.891 528.843 255.131 526.54 254.791 524.13C254.441 521.719 254.271 518.966 254.271 515.859C254.271 507.942 257.171 501.651 262.983 496.987C268.794 492.332 277.736 490 289.819 490C297.141 490 303.443 490.941 308.724 492.812C314.006 494.684 318.077 497.545 320.917 501.406C323.758 505.257 325.188 510.235 325.188 516.34C325.188 521.268 324.408 525.413 322.838 528.784C321.267 532.155 318.597 535.105 314.826 537.613C311.045 540.132 305.793 542.562 299.052 544.923L318.917 562.748C319.497 561.356 320.047 559.563 320.577 557.368C321.097 555.173 321.597 552.929 322.057 550.626C322.518 548.323 322.868 546.266 323.108 544.443L343.323 544.923C342.743 548.461 341.982 552.067 341.062 555.761C340.132 559.455 339.112 562.963 338.011 566.275C336.911 569.597 335.721 572.537 334.441 575.104L352.565 590.518L344.553 603.364L322.598 588.911C318.297 593.624 312.895 597.211 306.394 599.67C299.862 602.159 292.31 603.384 283.718 603.384ZM284.408 585.403C288.819 585.403 292.77 584.658 296.261 583.159C299.742 581.66 302.593 579.416 304.803 576.417L275.006 550.244C271.985 551.204 269.514 552.439 267.604 553.938C265.683 555.437 264.263 557.201 263.333 559.24C262.403 561.278 261.943 563.845 261.943 566.951C261.943 572.948 263.713 577.524 267.254 580.68C270.795 583.825 276.506 585.403 284.408 585.403ZM286.679 534.331C290.16 532.831 293.04 531.283 295.301 529.676C297.561 528.069 299.252 526.246 300.352 524.218C301.452 522.19 302.003 519.828 302.003 517.153C302.003 513.086 301.012 510.117 299.042 508.236C297.061 506.364 293.931 505.424 289.629 505.424C285.558 505.424 282.458 506.384 280.307 508.314C278.157 510.245 277.086 513.243 277.086 517.31C277.086 519.348 277.316 521.161 277.786 522.768C278.247 524.375 279.177 526.06 280.577 527.824C281.968 529.598 284.008 531.763 286.679 534.331Z" fill="#095CA2"/>
<path d="M403.418 601.62V491.94H449.939C459.462 491.94 467.454 493.067 473.895 495.311C480.337 497.555 485.158 501.308 488.359 506.55C491.55 511.793 493.15 518.917 493.15 527.912C493.15 535.84 491.61 542.503 488.529 547.902C485.448 553.311 480.777 557.299 474.505 559.867L493.15 601.62H467.884L452.2 564.845H427.454V601.62H403.418ZM427.464 546.697H450.469C454.881 546.697 458.421 545.923 461.102 544.365C463.773 542.816 465.693 540.621 466.854 537.78C468.014 534.948 468.594 531.704 468.594 528.059C468.594 522.062 467.084 517.564 464.063 514.566C461.042 511.568 456.341 510.068 449.949 510.068H427.474V546.697H427.464Z" fill="#095CA2"/>
<path d="M548.744 601.62V491.94H572.79V601.63H548.744V601.62Z" fill="#095CA2"/>
<path d="M593.525 601.62V521.004H616.701V526.139C618.561 525.07 620.822 524.022 623.493 523.003C626.163 521.984 628.984 521.102 631.945 520.357C634.905 519.612 637.786 519.23 640.567 519.23C648.699 519.23 655 520.543 659.471 523.17C663.943 525.796 667.103 530.078 668.964 536.016C670.824 541.954 671.755 549.911 671.755 559.867V601.62H648.409V560.994C648.409 555.428 648.059 550.959 647.368 547.579C646.668 544.208 645.338 541.768 643.357 540.269C641.377 538.769 638.476 538.025 634.645 538.025C632.555 538.025 630.374 538.211 628.114 538.583C625.853 538.956 623.693 539.465 621.662 540.112C619.632 540.759 617.971 541.396 616.701 542.042V601.62H593.525Z" fill="#095CA2"/>
<path d="M725.598 603.384C715.605 603.384 707.794 601.963 702.162 599.131C696.531 596.299 692.58 591.723 690.309 585.403C688.049 579.082 686.908 570.793 686.908 560.513C686.908 550.342 688.189 542.228 690.739 536.183C693.29 530.137 697.451 525.796 703.202 523.179C708.954 520.553 716.476 519.24 725.768 519.24C728.209 519.24 731.049 519.397 734.31 519.72C737.561 520.044 740.842 520.445 744.153 520.926C747.463 521.406 750.274 521.866 752.605 522.288L751.734 539.475C749.524 539.259 747.033 539.073 744.243 538.916C741.452 538.76 738.751 538.593 736.141 538.436C733.53 538.28 731.409 538.191 729.779 538.191C724.778 538.191 720.867 538.916 718.016 540.357C715.165 541.797 713.195 544.159 712.095 547.422C710.984 550.685 710.434 555.046 710.434 560.513C710.434 566.403 710.954 571.116 712.005 574.643C713.055 578.181 714.935 580.689 717.666 582.189C720.397 583.688 724.428 584.433 729.779 584.433C731.399 584.433 733.55 584.354 736.231 584.188C738.901 584.031 741.662 583.845 744.513 583.629C747.353 583.414 749.884 583.257 752.095 583.149L752.795 600.336C750.474 600.768 747.683 601.218 744.433 601.698C741.182 602.179 737.901 602.58 734.59 602.904C731.269 603.227 728.269 603.384 725.598 603.384Z" fill="#095CA2"/>
<path opacity="0.61" d="M611.772 212.961C618.91 212.961 624.695 207.293 624.695 200.301C624.695 193.309 618.91 187.641 611.772 187.641C604.635 187.641 598.849 193.309 598.849 200.301C598.849 207.293 604.635 212.961 611.772 212.961Z" fill="url(#paint1_linear_1_2)"/>
<path opacity="0.61" d="M627.636 246.738C631.481 246.738 634.598 243.685 634.598 239.918C634.598 236.151 631.481 233.098 627.636 233.098C623.791 233.098 620.674 236.151 620.674 239.918C620.674 243.685 623.791 246.738 627.636 246.738Z" fill="url(#paint2_linear_1_2)"/>
<path opacity="0.61" d="M593.898 253.558C597.743 253.558 600.86 250.505 600.86 246.738C600.86 242.971 597.743 239.918 593.898 239.918C590.053 239.918 586.936 242.971 586.936 246.738C586.936 250.505 590.053 253.558 593.898 253.558Z" fill="url(#paint3_linear_1_2)"/>
<path opacity="0.61" d="M257.554 354.35L260.405 359.661L265.616 362.562L260.405 365.462L257.554 370.773L254.703 365.462L249.492 362.562L254.703 359.661L257.554 354.35Z" fill="url(#paint4_linear_1_2)"/>
<path opacity="0.61" d="M203.491 351.891L206.341 357.202L211.553 360.102L206.341 363.013L203.491 368.314L200.64 363.013L195.419 360.102L200.64 357.202L203.491 351.891Z" fill="url(#paint5_linear_1_2)"/>
<path d="M128.972 144.035C129.262 146.514 113.328 146.514 113.628 144.035C113.328 141.556 129.262 141.556 128.972 144.035Z" fill="url(#paint6_linear_1_2)"/>
<path d="M122 126.319C104.896 126.524 87.2817 133.07 98.1644 143.183C92.0229 127.2 151.978 127.2 145.836 143.183C156.719 133.07 139.105 126.524 122 126.319Z" fill="url(#paint7_linear_1_2)"/>
<path d="M121.3 136.764C111.718 136.656 102.365 141.527 110.958 146.357C98.3845 135.588 144.216 135.598 131.643 146.357C140.225 141.527 130.873 136.656 121.3 136.764Z" fill="url(#paint8_linear_1_2)"/>
<path d="M243.991 133.423C244.351 136.421 225.046 136.421 225.406 133.423C225.046 130.434 244.351 130.434 243.991 133.423Z" fill="url(#paint9_linear_1_2)"/>
<path d="M234.698 113.08C214.793 113.315 194.278 120.939 206.952 132.707C199.8 114.099 269.587 114.099 262.435 132.707C275.108 120.939 254.613 113.315 234.698 113.08Z" fill="url(#paint10_linear_1_2)"/>
<path d="M234.698 123.447C222.395 123.31 210.392 129.562 221.415 135.765C213.263 129.807 224.106 125.084 234.698 125.074C245.291 125.084 256.124 129.807 247.982 135.765C259.004 129.562 247.001 123.31 234.698 123.447Z" fill="url(#paint11_linear_1_2)"/>
<path d="M178.784 113.335C179.195 116.745 157.209 116.745 157.619 113.335C157.209 109.925 179.195 109.925 178.784 113.335Z" fill="url(#paint12_linear_1_2)"/>
<path d="M168.202 91.0814C145.536 91.346 122.17 100.038 136.604 113.433C128.462 92.2377 207.942 92.2377 199.8 113.433C214.233 100.028 190.888 91.346 168.202 91.0814Z" fill="url(#paint13_linear_1_2)"/>
<path d="M168.202 103.673C155.899 103.536 143.896 109.788 154.919 115.99C146.767 110.033 157.609 105.31 168.202 105.3C178.794 105.31 189.627 110.033 181.485 115.99C192.508 109.788 180.505 103.536 168.202 103.673Z" fill="url(#paint14_linear_1_2)"/>
<path d="M236.619 134.04C214.103 155.421 182.245 156.264 154.498 152.394C135.354 149.581 121.28 144.437 121.29 144.437C170.873 147.553 168.192 113.08 168.192 113.08C183.626 137.166 215.234 142.056 236.619 134.04Z" fill="url(#paint15_linear_1_2)"/>
<path d="M478.079 423.276H456.344V398.073C456.344 396.564 457.594 395.33 459.144 395.33H475.278C476.819 395.33 478.079 396.555 478.079 398.073V423.276Z" fill="url(#paint16_linear_1_2)"/>
<path d="M480.41 303.023C472.558 295.831 464.976 289.648 458.364 282.583C453.353 277.223 450.142 278.065 445.351 282.72C433.918 293.822 421.985 304.425 410.032 315.429C406.911 311.392 407.922 307.982 407.922 304.836C407.851 233.304 407.851 161.761 407.881 90.2289C407.891 77.4217 407.982 77.4021 419.254 83.6636C437.829 93.9721 456.374 104.349 474.988 114.619C478.929 116.794 482.16 118.636 482.14 124.182C481.9 182.741 481.95 241.3 481.89 299.858C481.89 300.407 481.39 300.956 480.41 303.023Z" fill="url(#paint17_linear_1_2)"/>
<path d="M743.975 451.252C731.532 451.252 719.089 451.252 706.646 451.252C676.738 451.252 646.821 451.096 616.924 451.39C610.632 451.448 606.251 449.508 601.72 445.295C554.398 401.336 506.746 357.731 459.524 313.665C453.333 307.884 449.762 308.501 444.02 313.851C422.125 334.263 399.569 354.007 377.774 374.526C371.322 380.602 367.121 381.16 360.6 374.713C348.887 363.15 348.487 363.493 336.614 374.428C310.877 398.142 285.141 421.865 259.455 445.628C256.214 448.636 253.253 451.311 248.162 451.292C203.991 451.125 159.83 451.194 115.649 449.636C155.449 446.715 195.239 443.56 235.068 441.091C241.8 440.67 246.411 438.475 251.022 434.104C281.27 405.383 311.838 376.996 341.905 348.089C347.396 342.807 350.487 343.131 355.719 348.059C370.382 361.905 370.582 361.69 385.456 347.863C405.411 329.314 425.506 310.912 445.231 292.127C450.022 287.561 452.743 286.777 458.184 291.813C508.537 338.456 559.279 384.698 609.742 431.223C614.953 436.025 620.214 438.416 627.556 439.023C666.406 442.208 705.195 446.088 744.005 449.724C743.975 450.233 743.975 450.743 743.975 451.252Z" fill="url(#paint18_linear_1_2)"/>
<path d="M380.145 341.651C380.145 330.559 380.145 320.358 380.145 310.157C380.145 275.518 379.955 240.888 380.295 206.259C380.365 199.409 378.424 195.303 372.063 192.089C363.951 187.983 356.519 182.594 348.717 177.871C341.085 173.246 333.823 165.877 323.37 176.705C323.37 157.783 323.451 141.546 323.31 125.319C323.28 121.537 324.681 118.989 327.932 117.157C350.807 104.232 373.663 91.2872 396.429 78.3918C399.639 80.8023 398.279 83.6636 398.279 86.0644C398.389 159.664 397.929 233.265 398.849 306.855C399.049 322.151 395.188 333.155 380.145 341.651Z" fill="url(#paint19_linear_1_2)"/>
<path d="M562.41 378.025C551.507 368.157 540.865 358.564 530.292 348.912C526.841 345.757 527.821 341.494 527.821 337.584C527.781 280.976 527.801 224.367 527.801 167.758C527.801 163.8 527.801 159.851 527.801 153.824C513.998 161.84 501.715 168.964 489.342 176.156C486.751 170.62 490.182 168.944 493.483 166.955C503.025 161.203 512.598 155.5 521.89 149.385C526.021 146.671 529.212 146.504 533.833 148.768C564.05 163.653 564.12 163.525 564.12 196.724C564.12 253.333 564.14 309.941 564.05 366.56C564.04 370.048 565.141 373.762 562.41 378.025Z" fill="url(#paint20_linear_1_2)"/>
<path d="M296.504 381.347C296.504 361.268 296.504 343.699 296.504 326.129C296.504 285.219 296.624 244.298 296.374 203.387C296.334 197.341 297.874 193.657 303.736 190.953C314.138 186.141 323.931 176.724 334.333 176.225C344.866 175.715 354.128 186.494 363.801 192.52C368.252 195.294 376.184 195.999 373.843 205.543C363.43 199.448 353.388 194 343.826 187.837C336.914 183.378 335.564 185.259 335.594 192.52C335.774 240.085 335.554 287.659 335.834 335.223C335.874 342.131 333.963 347.04 328.652 351.626C318.269 360.592 308.457 370.215 296.504 381.347Z" fill="url(#paint21_linear_1_2)"/>
<path d="M522.44 341.524C511.107 331.186 501.305 322.053 491.262 313.195C488.312 310.588 488.171 307.609 488.181 304.238C488.211 265.356 488.181 226.474 488.241 187.592C488.241 185.387 487.221 182.574 489.612 181.114C499.394 175.176 509.277 169.385 519.209 163.692C521.62 162.31 522.94 163.555 523.01 166.151C523.04 167.484 523.07 168.807 523.07 170.14C523.07 225.308 523.07 280.466 523.05 335.634C523.06 336.889 522.81 338.143 522.44 341.524Z" fill="url(#paint22_linear_1_2)"/>
<path d="M339.705 338.035C339.705 289.334 339.705 240.624 339.705 190.257C351.147 196.724 361.59 202.633 372.043 208.512C375.343 210.364 374.923 213.539 374.933 216.469C374.973 258.389 374.983 300.309 374.953 342.219C374.953 345.512 375.283 349.343 371.282 350.715C367.621 351.969 366.111 348.236 363.851 346.501C360.92 344.248 358.069 341.818 355.568 339.123C350.787 333.949 346.196 330.735 340.905 341.063C340.505 340.054 340.105 339.044 339.705 338.035Z" fill="url(#paint23_linear_1_2)"/>
<path d="M589.287 450.361C577.704 452.84 570.102 449.988 562.35 442.747C528.211 410.851 493.173 379.896 458.924 348.108C452.763 342.386 449.592 343.67 444.301 348.559C410.492 379.828 376.174 410.577 342.625 442.1C334.453 449.773 326.351 453.3 315.489 450.449C322.91 442.835 330.142 434.78 338.054 427.421C373.983 393.987 410.142 360.788 446.101 327.384C449.772 323.974 452.303 322.318 456.854 326.561C499.864 366.687 543.055 406.618 586.186 446.627C587.096 447.48 587.796 448.558 589.287 450.361Z" fill="url(#paint24_linear_1_2)"/>
<path d="M447.751 430.106H426.016V451.399H447.751V430.106Z" fill="url(#paint25_linear_1_2)"/>
<path d="M478.079 430.106H456.344V451.399H478.079V430.106Z" fill="url(#paint26_linear_1_2)"/>
<path d="M447.751 423.276H426.016V398.073C426.016 396.564 427.266 395.33 428.817 395.33H444.951C446.491 395.33 447.751 396.555 447.751 398.073V423.276Z" fill="url(#paint27_linear_1_2)"/>
<path d="M171.153 139.224L340.185 245.758L367.932 155.676L168.202 134.765L171.153 139.224Z" fill="url(#paint28_linear_1_2)"/>
<path d="M168.702 141.34L299.485 315.35L325.361 280.182L166.521 136.764L168.702 141.34Z" fill="url(#paint29_linear_1_2)"/>
<path d="M164.971 143.966L253.843 341.739L286.931 312.94L163.871 139.028L164.971 143.966Z" fill="url(#paint30_linear_1_2)"/>
<defs>
<linearGradient id="paint0_linear_1_2" x1="214.022" y1="323.933" x2="245.792" y2="323.933" gradientUnits="userSpaceOnUse">
<stop stop-color="#13427A" stop-opacity="0.1"/>
<stop offset="1" stop-color="white"/>
</linearGradient>
<linearGradient id="paint1_linear_1_2" x1="598.847" y1="200.3" x2="624.695" y2="200.3" gradientUnits="userSpaceOnUse">
<stop stop-color="#13427A" stop-opacity="0.1"/>
<stop offset="1" stop-color="white"/>
</linearGradient>
<linearGradient id="paint2_linear_1_2" x1="634.6" y1="239.913" x2="620.672" y2="239.913" gradientUnits="userSpaceOnUse">
<stop stop-color="#13427A" stop-opacity="0.1"/>
<stop offset="1" stop-color="white"/>
</linearGradient>
<linearGradient id="paint3_linear_1_2" x1="600.861" y1="246.736" x2="586.933" y2="246.736" gradientUnits="userSpaceOnUse">
<stop stop-color="#13427A" stop-opacity="0.1"/>
<stop offset="1" stop-color="white"/>
</linearGradient>
<linearGradient id="paint4_linear_1_2" x1="249.488" y1="362.561" x2="265.614" y2="362.561" gradientUnits="userSpaceOnUse">
<stop stop-color="#13427A" stop-opacity="0.1"/>
<stop offset="1" stop-color="white"/>
</linearGradient>
<linearGradient id="paint5_linear_1_2" x1="195.424" y1="360.106" x2="211.549" y2="360.106" gradientUnits="userSpaceOnUse">
<stop stop-color="#13427A" stop-opacity="0.1"/>
<stop offset="1" stop-color="white"/>
</linearGradient>
<linearGradient id="paint6_linear_1_2" x1="102.182" y1="56.2621" x2="130.869" y2="193.523" gradientUnits="userSpaceOnUse">
<stop stop-color="#153D8A"/>
<stop offset="0.2404" stop-color="#005990"/>
<stop offset="0.766" stop-color="#008E84"/>
<stop offset="1" stop-color="#00A173"/>
</linearGradient>
<linearGradient id="paint7_linear_1_2" x1="104.277" y1="55.8242" x2="132.964" y2="193.085" gradientUnits="userSpaceOnUse">
<stop stop-color="#2F509E"/>
<stop offset="0.1589" stop-color="#1A61A0"/>
<stop offset="0.7411" stop-color="#009289"/>
<stop offset="1" stop-color="#00A173"/>
</linearGradient>
<linearGradient id="paint8_linear_1_2" x1="102.514" y1="56.1926" x2="131.201" y2="193.454" gradientUnits="userSpaceOnUse">
<stop stop-color="#2F509E"/>
<stop offset="0.1589" stop-color="#1A61A0"/>
<stop offset="0.7411" stop-color="#009289"/>
<stop offset="1" stop-color="#00A173"/>
</linearGradient>
<linearGradient id="paint9_linear_1_2" x1="212.858" y1="33.1317" x2="241.544" y2="170.393" gradientUnits="userSpaceOnUse">
<stop stop-color="#2F509E"/>
<stop offset="0.1589" stop-color="#1A61A0"/>
<stop offset="0.7411" stop-color="#009289"/>
<stop offset="1" stop-color="#00A173"/>
</linearGradient>
<linearGradient id="paint10_linear_1_2" x1="214.456" y1="32.7977" x2="243.142" y2="170.059" gradientUnits="userSpaceOnUse">
<stop stop-color="#2F509E"/>
<stop offset="0.1589" stop-color="#1A61A0"/>
<stop offset="0.7411" stop-color="#009289"/>
<stop offset="1" stop-color="#00A173"/>
</linearGradient>
<linearGradient id="paint11_linear_1_2" x1="213.42" y1="33.0142" x2="242.106" y2="170.275" gradientUnits="userSpaceOnUse">
<stop stop-color="#2F509E"/>
<stop offset="0.1589" stop-color="#1A61A0"/>
<stop offset="0.7411" stop-color="#009289"/>
<stop offset="1" stop-color="#00A173"/>
</linearGradient>
<linearGradient id="paint12_linear_1_2" x1="153.443" y1="45.5489" x2="182.129" y2="182.81" gradientUnits="userSpaceOnUse">
<stop stop-color="#2F509E"/>
<stop offset="0.1589" stop-color="#1A61A0"/>
<stop offset="0.7411" stop-color="#009289"/>
<stop offset="1" stop-color="#00A173"/>
</linearGradient>
<linearGradient id="paint13_linear_1_2" x1="155.07" y1="45.2087" x2="183.757" y2="182.47" gradientUnits="userSpaceOnUse">
<stop stop-color="#2F509E"/>
<stop offset="0.1589" stop-color="#1A61A0"/>
<stop offset="0.7411" stop-color="#009289"/>
<stop offset="1" stop-color="#00A173"/>
</linearGradient>
<linearGradient id="paint14_linear_1_2" x1="153.937" y1="45.4455" x2="182.624" y2="182.706" gradientUnits="userSpaceOnUse">
<stop stop-color="#2F509E"/>
<stop offset="0.1589" stop-color="#1A61A0"/>
<stop offset="0.7411" stop-color="#009289"/>
<stop offset="1" stop-color="#00A173"/>
</linearGradient>
<linearGradient id="paint15_linear_1_2" x1="158.335" y1="44.5266" x2="187.021" y2="181.788" gradientUnits="userSpaceOnUse">
<stop stop-color="#004C9C"/>
<stop offset="0.1667" stop-color="#005E9E"/>
<stop offset="0.7434" stop-color="#009088"/>
<stop offset="1" stop-color="#00A173"/>
</linearGradient>
<linearGradient id="paint16_linear_1_2" x1="456.343" y1="409.303" x2="478.075" y2="409.303" gradientUnits="userSpaceOnUse">
<stop stop-color="#004C9C"/>
<stop offset="0.1667" stop-color="#005E9E"/>
<stop offset="0.7434" stop-color="#009088"/>
<stop offset="1" stop-color="#00A173"/>
</linearGradient>
<linearGradient id="paint17_linear_1_2" x1="407.767" y1="197.504" x2="482.14" y2="197.504" gradientUnits="userSpaceOnUse">
<stop stop-color="#004C9C"/>
<stop offset="0.1667" stop-color="#005E9E"/>
<stop offset="0.7434" stop-color="#009088"/>
<stop offset="1" stop-color="#00A173"/>
</linearGradient>
<linearGradient id="paint18_linear_1_2" x1="115.637" y1="369.881" x2="743.978" y2="369.881" gradientUnits="userSpaceOnUse">
<stop stop-color="#004C9C"/>
<stop offset="0.1667" stop-color="#005E9E"/>
<stop offset="0.7434" stop-color="#009088"/>
<stop offset="1" stop-color="#00A173"/>
</linearGradient>
<linearGradient id="paint19_linear_1_2" x1="323.313" y1="210.022" x2="398.868" y2="210.022" gradientUnits="userSpaceOnUse">
<stop stop-color="#004C9C"/>
<stop offset="0.1667" stop-color="#005E9E"/>
<stop offset="0.7434" stop-color="#009088"/>
<stop offset="1" stop-color="#00A173"/>
</linearGradient>
<linearGradient id="paint20_linear_1_2" x1="488.424" y1="262.621" x2="564.259" y2="262.621" gradientUnits="userSpaceOnUse">
<stop stop-color="#004C9C"/>
<stop offset="0.1667" stop-color="#005E9E"/>
<stop offset="0.7434" stop-color="#009088"/>
<stop offset="1" stop-color="#00A173"/>
</linearGradient>
<linearGradient id="paint21_linear_1_2" x1="296.372" y1="278.771" x2="374.266" y2="278.771" gradientUnits="userSpaceOnUse">
<stop stop-color="#004C9C"/>
<stop offset="0.1667" stop-color="#005E9E"/>
<stop offset="0.7434" stop-color="#009088"/>
<stop offset="1" stop-color="#00A173"/>
</linearGradient>
<linearGradient id="paint22_linear_1_2" x1="488.024" y1="252.316" x2="523.084" y2="252.316" gradientUnits="userSpaceOnUse">
<stop stop-color="#004C9C"/>
<stop offset="0.1667" stop-color="#005E9E"/>
<stop offset="0.7434" stop-color="#009088"/>
<stop offset="1" stop-color="#00A173"/>
</linearGradient>
<linearGradient id="paint23_linear_1_2" x1="339.705" y1="270.612" x2="374.965" y2="270.612" gradientUnits="userSpaceOnUse">
<stop stop-color="#004C9C"/>
<stop offset="0.1667" stop-color="#005E9E"/>
<stop offset="0.7434" stop-color="#009088"/>
<stop offset="1" stop-color="#00A173"/>
</linearGradient>
<linearGradient id="paint24_linear_1_2" x1="315.489" y1="387.734" x2="589.287" y2="387.734" gradientUnits="userSpaceOnUse">
<stop stop-color="#004C9C"/>
<stop offset="0.1667" stop-color="#005E9E"/>
<stop offset="0.7434" stop-color="#009088"/>
<stop offset="1" stop-color="#00A173"/>
</linearGradient>
<linearGradient id="paint25_linear_1_2" x1="426.016" y1="440.753" x2="447.747" y2="440.753" gradientUnits="userSpaceOnUse">
<stop stop-color="#004C9C"/>
<stop offset="0.1667" stop-color="#005E9E"/>
<stop offset="0.7434" stop-color="#009088"/>
<stop offset="1" stop-color="#00A173"/>
</linearGradient>
<linearGradient id="paint26_linear_1_2" x1="456.343" y1="440.753" x2="478.075" y2="440.753" gradientUnits="userSpaceOnUse">
<stop stop-color="#004C9C"/>
<stop offset="0.1667" stop-color="#005E9E"/>
<stop offset="0.7434" stop-color="#009088"/>
<stop offset="1" stop-color="#00A173"/>
</linearGradient>
<linearGradient id="paint27_linear_1_2" x1="426.016" y1="409.303" x2="447.747" y2="409.303" gradientUnits="userSpaceOnUse">
<stop stop-color="#004C9C"/>
<stop offset="0.1667" stop-color="#005E9E"/>
<stop offset="0.7434" stop-color="#009088"/>
<stop offset="1" stop-color="#00A173"/>
</linearGradient>
<linearGradient id="paint28_linear_1_2" x1="356.805" y1="201.407" x2="161.878" y2="163.388" gradientUnits="userSpaceOnUse">
<stop stop-color="white" stop-opacity="0.2"/>
<stop offset="0.1724" stop-color="#FCFDFF" stop-opacity="0.3379"/>
<stop offset="0.3374" stop-color="#F3F9FD" stop-opacity="0.4699"/>
<stop offset="0.4995" stop-color="#E2F0FB" stop-opacity="0.5996"/>
<stop offset="0.6598" stop-color="#CBE4F6" stop-opacity="0.7279"/>
<stop offset="0.8189" stop-color="#A8D4F0" stop-opacity="0.8551"/>
<stop offset="0.975" stop-color="#77C1E8" stop-opacity="0.98"/>
<stop offset="1" stop-color="#6DBEE7"/>
</linearGradient>
<linearGradient id="paint29_linear_1_2" x1="314.493" y1="299.876" x2="129.653" y2="221.539" gradientUnits="userSpaceOnUse">
<stop stop-color="white" stop-opacity="0.2"/>
<stop offset="1" stop-color="#6DBEE7"/>
</linearGradient>
<linearGradient id="paint30_linear_1_2" x1="272" y1="329.993" x2="109.615" y2="213.229" gradientUnits="userSpaceOnUse">
<stop stop-color="white" stop-opacity="0.2"/>
<stop offset="1" stop-color="#6DBEE7"/>
</linearGradient>
</defs>
</svg>
